<?xml version="1.0" standalone="no"?>
<!DOCTYPE svg PUBLIC "-//W3C//DTD SVG 20010904//EN"
 "http://www.w3.org/TR/2001/REC-SVG-20010904/DTD/svg10.dtd">
<svg version="1.0" xmlns="http://www.w3.org/2000/svg"
 width="500.000000pt" height="500.000000pt" viewBox="0 0 500.000000 500.000000"
 preserveAspectRatio="xMidYMid meet">

<g transform="translate(0.000000,500.000000) scale(0.100000,-0.100000)"
fill="#000000" stroke="none">
<path d="M2145 4048 c-18 -52 -37 -145 -42 -209 -5 -62 -2 -89 16 -143 l22
-68 -21 -54 c-27 -72 -25 -118 5 -169 24 -42 90 -92 148 -114 l29 -11 -19 -32
c-10 -17 -25 -34 -33 -38 -75 -37 -82 -37 -185 0 -84 31 -185 36 -276 16 -98
-22 -169 -64 -223 -132 -24 -31 -58 -64 -75 -75 -17 -10 -34 -26 -38 -35 -9
-24 25 -221 46 -270 15 -34 25 -44 43 -44 34 0 48 18 48 61 0 47 17 61 57 50
52 -15 158 -69 177 -90 18 -19 18 -22 1 -63 -67 -169 -135 -430 -135 -522 0
-116 65 -242 159 -306 49 -34 135 -69 204 -84 41 -9 35 -40 -15 -73 -49 -33
-58 -64 -33 -113 16 -30 15 -35 -36 -186 -37 -113 -48 -159 -40 -167 6 -6 12
-9 14 -6 3 2 26 69 52 149 26 80 51 149 55 153 4 5 44 -3 88 -17 75 -23 139
-36 255 -51 41 -6 47 -9 47 -30 0 -19 -10 -30 -40 -45 -123 -63 -74 -250 65
-250 141 0 187 194 60 254 -26 13 -35 23 -35 41 0 20 6 25 33 29 17 2 66 9
108 15 42 6 111 21 154 35 43 14 82 23 86 20 4 -2 33 -81 64 -174 52 -157 65
-184 79 -162 3 5 -20 82 -50 173 -29 90 -54 171 -54 179 0 8 7 24 15 34 33 44
13 97 -46 125 -23 11 -35 24 -37 41 -3 23 2 26 55 39 256 59 404 249 372 477
-11 78 -30 156 -58 234 -109 310 -131 374 -131 384 0 6 21 -13 46 -42 54 -61
89 -82 140 -82 61 0 75 20 68 104 -6 63 -3 78 22 136 33 77 37 157 10 236 -20
62 -47 89 -106 104 -25 7 -71 25 -102 42 -52 27 -57 34 -60 67 -3 31 -7 36
-30 39 -23 3 -28 8 -28 32 0 35 -37 47 -79 26 -28 -15 -28 -15 -40 23 -15 53
-15 55 22 130 30 61 32 74 35 186 4 141 -5 175 -45 175 -60 0 -146 -35 -239
-97 l-50 -33 -45 15 c-31 11 -60 14 -99 10 l-56 -6 -64 57 c-93 83 -222 139
-235 102z m132 -61 c29 -17 72 -51 95 -74 36 -36 40 -45 28 -54 -11 -7 -5 -8
21 -4 36 7 36 6 43 -35 7 -47 22 -45 32 5 10 55 24 51 24 -7 0 -61 14 -92 30
-68 5 8 13 36 16 63 8 57 24 62 24 8 0 -48 17 -63 26 -24 11 51 14 55 32 48 9
-4 23 -9 30 -12 7 -3 10 0 7 9 -10 24 113 97 200 119 61 15 65 10 65 -111 0
-111 -16 -184 -54 -238 -26 -38 -26 -40 -11 -82 21 -59 19 -84 -8 -117 -13
-15 -32 -42 -42 -60 -22 -38 -99 -75 -192 -93 -36 -7 -60 -17 -57 -22 4 -6
-24 -8 -77 -4 -46 4 -108 3 -137 -2 -55 -9 -67 -5 -52 17 6 10 21 12 56 7 42
-5 45 -4 24 6 -172 78 -216 105 -253 158 -23 32 -21 95 3 149 24 52 25 73 5
111 -32 62 -30 187 6 313 9 35 13 38 37 32 15 -3 51 -20 79 -38z m723 -567 c0
-38 1 -40 21 -30 30 17 44 7 44 -31 0 -31 5 -37 60 -66 33 -18 84 -40 112 -49
64 -19 79 -33 94 -87 22 -75 17 -146 -14 -215 -24 -53 -28 -74 -25 -130 l3
-67 -37 -3 c-91 -8 -162 122 -268 485 l-21 73 -24 -16 c-32 -21 -57 -90 -53
-145 3 -39 4 -41 11 -16 4 15 9 37 12 50 2 12 10 31 18 41 13 18 16 15 35 -45
11 -35 25 -102 32 -149 15 -114 51 -244 117 -425 114 -313 134 -402 114 -511
-30 -166 -133 -262 -367 -342 -66 -23 -78 -30 -67 -40 25 -24 15 -49 -28 -66
-163 -65 -392 -69 -579 -10 -81 25 -94 39 -65 67 12 13 3 19 -75 46 -150 54
-248 130 -294 230 -59 128 3 435 158 781 30 66 52 120 51 120 -2 0 -26 -36
-54 -80 l-52 -80 -32 24 c-52 39 -137 78 -186 85 l-46 7 1 45 c1 98 82 193
191 225 67 19 184 15 252 -9 l44 -16 48 34 c175 120 454 125 628 10 38 -25 51
-30 46 -18 -17 41 -15 54 11 119 43 111 139 244 175 244 5 0 9 -18 9 -40z
m-210 -153 c0 -17 -34 -97 -41 -97 -6 0 -21 12 -35 26 -25 24 -25 26 -9 44 15
17 34 24 73 29 6 0 12 0 12 -2z m-125 -38 c11 -16 1 -20 -33 -13 -18 4 -29 10
-26 15 7 13 51 11 59 -2z m-603 -54 c57 -20 66 -30 37 -45 -16 -9 -43 -8 -116
6 -81 14 -106 15 -161 5 -111 -21 -193 -76 -236 -159 -21 -41 -38 -149 -32
-201 7 -54 -6 -85 -22 -54 -13 24 -42 174 -42 218 0 27 6 37 34 53 19 12 49
40 66 64 40 56 90 93 154 114 102 34 220 34 318 -1z m453 -1902 c5 -12 17 -24
27 -26 22 -6 24 -35 3 -43 -8 -4 -15 -19 -15 -34 0 -35 -11 -43 -61 -43 -46 0
-69 17 -69 49 0 13 -4 24 -10 24 -14 0 -13 37 2 46 6 4 17 -1 24 -10 8 -11 14
-13 19 -7 3 6 1 11 -4 11 -14 0 -14 33 0 47 19 19 73 10 84 -14z"/>
<path d="M2171 3936 c-15 -63 -14 -140 4 -183 l16 -37 25 37 c13 20 29 37 34
37 5 0 17 11 25 24 21 31 7 91 -31 136 -37 44 -59 40 -73 -14z"/>
<path d="M2861 3904 c-35 -30 -61 -73 -61 -103 0 -11 14 -40 30 -64 17 -25 30
-50 30 -56 0 -27 23 -7 42 37 16 35 22 68 22 127 1 92 -11 103 -63 59z"/>
<path d="M2331 3674 c-27 -35 -28 -93 -1 -122 22 -23 46 -21 68 6 17 22 16 63
-2 56 -8 -3 -19 4 -26 16 -9 17 -8 25 5 40 15 16 15 18 0 24 -23 8 -21 9 -44
-20z"/>
<path d="M2646 3648 c-22 -31 -21 -101 2 -121 25 -23 48 -21 66 5 23 33 21 68
-4 68 -28 0 -36 27 -15 50 18 19 17 20 -8 20 -15 0 -32 -9 -41 -22z"/>
<path d="M2477 3551 c-16 -6 -16 -9 8 -31 17 -16 25 -34 25 -56 0 -46 -19 -53
-46 -19 -27 34 -44 27 -21 -8 24 -36 69 -52 103 -35 29 14 52 43 42 53 -3 4
-16 -3 -28 -15 -15 -15 -25 -19 -32 -12 -16 16 1 70 29 92 l25 20 -27 10 c-30
11 -52 12 -78 1z"/>
<path d="M2133 3004 c-25 -14 -54 -44 -69 -70 -28 -48 -28 -72 0 -29 30 45
104 85 158 85 52 0 58 5 31 26 -28 21 -74 16 -120 -12z"/>
<path d="M2724 3015 c-18 -14 -18 -14 6 -15 48 0 97 -20 140 -57 41 -35 42
-23 2 24 -26 29 -83 63 -108 63 -11 0 -29 -7 -40 -15z"/>
<path d="M2174 2926 c-69 -42 -115 -129 -113 -215 1 -67 17 -100 18 -37 1 79
21 126 76 184 62 63 96 69 147 23 27 -24 32 -36 36 -90 2 -33 1 -61 -3 -61 -4
0 -18 9 -32 20 -62 48 -153 0 -153 -81 0 -22 5 -50 11 -61 9 -16 8 -23 -2 -29
-8 -4 -23 -15 -34 -24 -20 -16 -19 -16 5 -10 14 3 41 9 61 12 l36 5 0 -45 c2
-87 71 -164 173 -194 l61 -18 -3 -108 -3 -108 -65 -23 c-36 -12 -101 -38 -145
-56 -137 -56 -241 -42 -325 46 -35 35 -35 36 -34 122 0 73 5 98 30 157 19 44
38 74 53 81 23 12 23 12 3 23 -35 19 -81 13 -107 -14 -23 -22 -33 -45 -20 -45
3 0 17 7 30 16 31 20 31 18 -1 -70 -20 -53 -27 -91 -28 -153 -1 -75 1 -84 29
-124 21 -29 50 -54 90 -74 51 -26 69 -30 139 -30 74 0 92 4 212 53 175 69 197
69 335 0 103 -52 105 -53 194 -53 73 0 100 5 143 24 60 27 105 73 122 127 18
54 8 157 -25 237 -15 38 -25 71 -22 74 3 3 20 -5 36 -17 35 -24 37 -21 16 19
-16 33 -33 41 -80 41 -37 0 -66 -24 -40 -34 21 -8 69 -115 84 -185 25 -117
-22 -200 -134 -238 -89 -30 -148 -23 -271 35 -60 28 -124 53 -142 57 l-33 7 3
105 3 106 49 14 c52 15 111 49 138 80 26 29 48 88 48 129 0 35 1 36 30 30 17
-3 45 -9 63 -12 l32 -6 -34 22 c-27 17 -32 25 -26 43 4 12 9 39 12 59 4 33 1
42 -30 73 -28 28 -43 35 -74 35 -27 0 -46 -6 -58 -20 -26 -29 -38 -14 -32 41
7 59 28 93 67 109 40 17 73 6 115 -35 54 -55 78 -110 78 -179 -1 -46 1 -56 9
-41 6 10 10 43 10 73 -1 114 -90 225 -182 225 -110 0 -167 -140 -105 -257 31
-59 31 -70 2 -62 -13 3 -83 6 -156 7 -73 0 -131 4 -129 7 31 58 48 112 48 149
0 127 -107 200 -206 139z m141 -207 c4 -5 4 -21 1 -35 -5 -20 -12 -25 -34 -22
-27 3 -39 25 -28 54 6 16 52 19 61 3z m400 -9 c8 -27 -12 -52 -39 -48 -21 3
-32 28 -22 54 8 22 54 18 61 -6z m-138 -125 c28 -8 57 -23 64 -32 13 -15 11
-16 -21 -10 -19 3 -82 11 -140 18 -58 7 -107 14 -110 16 -2 2 2 8 10 13 23 15
141 12 197 -5z"/>
<path d="M2072 2359 c2 -6 8 -10 13 -10 5 0 11 4 13 10 2 6 -4 11 -13 11 -9 0
-15 -5 -13 -11z"/>
<path d="M2832 2359 c2 -6 8 -10 13 -10 5 0 11 4 13 10 2 6 -4 11 -13 11 -9 0
-15 -5 -13 -11z"/>
<path d="M2210 2344 c0 -17 22 -14 28 4 2 7 -3 12 -12 12 -9 0 -16 -7 -16 -16z"/>
<path d="M2700 2344 c0 -9 5 -14 12 -12 18 6 21 28 4 28 -9 0 -16 -7 -16 -16z"/>
<path d="M2127 2273 c-12 -11 -8 -23 8 -23 8 0 15 7 15 15 0 16 -12 20 -23 8z"/>
<path d="M2787 2273 c-12 -11 -8 -23 8 -23 8 0 15 7 15 15 0 16 -12 20 -23 8z"/>
<path d="M2375 1861 c-22 -10 -46 -25 -53 -33 -11 -13 -6 -14 40 -2 67 18 139
18 206 0 29 -7 52 -10 52 -5 0 4 -23 19 -52 33 -63 31 -134 34 -193 7z"/>
<path d="M2455 1240 c-3 -5 1 -10 10 -10 9 0 13 5 10 10 -3 6 -8 10 -10 10 -2
0 -7 -4 -10 -10z"/>
<path d="M2500 1230 c0 -5 5 -10 10 -10 6 0 10 5 10 10 0 6 -4 10 -10 10 -5 0
-10 -4 -10 -10z"/>
</g>
</svg>
